<?xml version="1.0" encoding="UTF-8" standalone="no"?><!DOCTYPE svg PUBLIC "-//W3C//DTD SVG 1.1//EN" "http://www.w3.org/Graphics/SVG/1.1/DTD/svg11.dtd"><svg width="100%" height="100%" viewBox="0 0 15580 15580" version="1.1" xmlns="http://www.w3.org/2000/svg" xmlns:xlink="http://www.w3.org/1999/xlink" xml:space="preserve" xmlns:serif="http://www.serif.com/" style="fill-rule:evenodd;clip-rule:evenodd;stroke-linecap:round;"><rect id="Favicon-1" x="0" y="0" width="15579.2" height="15579.2" style="fill:none;"/><clipPath id="_clip1"><rect x="0" y="0" width="15579.2" height="15579.2"/></clipPath><g clip-path="url(#_clip1)"><g><path d="M15578.9,2569.4c0,-1418.09 -1151.67,-2569.4 -2569.59,-2569.4l-10440,0c-1417.92,0 -2569.17,1151.31 -2569.17,2569.4l-0,10440c-0,1418.08 1151.25,2569.38 2569.17,2569.38l10440,-0c1417.92,-0 2569.59,-1151.29 2569.59,-2569.38l0,-10440Z" style="fill:#403f41;"/><path d="M15578.9,2569.4c0,-1418.09 -1151.67,-2569.4 -2569.59,-2569.4l-10440,0c-1417.92,0 -2569.17,1151.31 -2569.17,2569.4l-0,10440c-0,1418.08 1151.25,2569.38 2569.17,2569.38l10440,-0c1417.92,-0 2569.59,-1151.29 2569.59,-2569.38l0,-10440Zm-1375,-0l0,10440c0,659.228 -535.434,1194.38 -1194.59,1194.38l-10440,-0c-659.089,-0 -1194.17,-535.211 -1194.17,-1194.38l-0,-10440c-0,-659.172 535.076,-1194.4 1194.17,-1194.4l10440,0c659.154,0 1194.59,535.164 1194.59,1194.4Z" style="fill:#ffc50c;"/><path d="M10633.7,3343.47c1587.41,962.711 2648.14,2707.14 2647.91,4699.2c-0.054,3033.29 -2459.14,5491.91 -5492.02,5491.97c-3033.29,-0.054 -5492.03,-2458.73 -5492.09,-5491.61c0.337,-1992.47 1060.72,-3737.12 2648.41,-4699.77" style="fill:none;fill-rule:nonzero;stroke:#fff;stroke-width:875px;"/><path d="M7789.77,8518.12c-232.089,0 -419.216,-156.724 -419.216,-349.846l0,-6218.44c0,-193.55 187.127,-349.846 419.216,-349.846c231.66,-0 419.215,156.296 419.215,349.846l0,6218.44c0,193.122 -187.555,349.846 -419.215,349.846" style="fill:#fff;fill-rule:nonzero;"/></g></g></svg>